<svg xmlns="http://www.w3.org/2000/svg" width="8276.12" height="1277.14" viewBox="0 0 8276.12 1277.14"><rect x="3508.61" y="38.67" width="4767.5" height="1192.01" fill="#0032f4"/><rect x="1680.31" y="10.2" width="678.35" height="1170.25" fill="#0032f4"/><polygon points="3164.56 341.75 3164.56 1176.18 3524.39 1176.18 3524.39 358.44 3164.56 341.75" fill="#cbe8c5"/><path d="M3089.76,304.51s-25.3,195.54-12.65,231.76l-3.54,20.42h-42.31s-10.28-230,18.18-247.44C3049.44,309.25,3069.2,292.65,3089.76,304.51Z" transform="translate(148.23 71.77)" fill="#131a5e"/><rect x="2466.23" y="509.43" width="635.73" height="119.32" fill="#0032f4"/><path d="M3074,604.91s-8.7,191.3,0,208.7c0,0-26.88,11.06-36.37,0V604.91Z" transform="translate(148.23 71.77)" fill="#131a5e"/><polygon points="2304.33 58.06 2340.36 528.55 3164.56 528.55 3164.56 58.06 2304.33 58.06" fill="#e2a86c"/><polygon points="3144.51 341.75 3524.39 360.6 3519.27 58.06 3144.51 58.06 3144.51 341.75" fill="#e2a86c"/><rect x="3149.72" y="38.67" width="17.89" height="489.88" fill="#d3819a"/><rect x="3344.47" y="55.28" width="17.89" height="296.44" fill="#d3819a"/><rect x="2782.64" y="38.67" width="17.89" height="489.88" fill="#d3819a"/><rect x="2984.33" y="38.67" width="17.89" height="489.88" fill="#d3819a"/><rect x="2604.09" y="38.67" width="17.89" height="489.88" fill="#d3819a"/><polygon points="2342.72 707.38 2345.3 1177.87 3164.56 1177.87 3164.56 707.38 2342.72 707.38" fill="#e2a86c"/><rect x="2552.19" y="707.23" width="17.89" height="489.88" fill="#d3819a"/><rect x="2939.67" y="707.23" width="17.89" height="489.88" fill="#d3819a"/><rect x="2748.78" y="707.23" width="17.89" height="489.88" fill="#d3819a"/><polygon points="2342.72 712.22 3158.66 712.22 3069.67 608.04 2484.16 608.04 2342.72 712.22" fill="#d3819a"/><polygon points="3069.67 608.04 3069.67 528.55 3167.61 528.55 3167.61 716.85 3167.61 728.94 3069.67 608.04" fill="#131a5e"/><path d="M2427.21,360.16s-39.37-32.15-5.36-59.92l-4.24-17.88s-47.66,58,4.24,96.32Z" transform="translate(148.23 71.77)" fill="#d3819a"/><path d="M2490.19,300.24s43.23,31.51,0,63.62v14.82s67.92-46.93,0-96.32Z" transform="translate(148.23 71.77)" fill="#d3819a"/><path d="M2809.33,300.24s-40.48,34.05,0,63.79v14.65s-62.79-46.21,0-98.74Z" transform="translate(148.23 71.77)" fill="#d3819a"/><path d="M2867.47,304.55s42.53,28.81,5.58,58.55v15.58s57.62-42.39-5.58-89.86Z" transform="translate(148.23 71.77)" fill="#d3819a"/><path d="M3175.57,207.85s-40-28.3-4.17-56.6l4.17-13.69s-67.43,46,0,84Z" transform="translate(148.23 71.77)" fill="#d3819a"/><path d="M3231.34,152.91s43.29,27.11,0,58.93v9.69s66.6-33.57,0-84Z" transform="translate(148.23 71.77)" fill="#d3819a"/><path d="M2375,888.79s-46.91,29.37,0,64.91v17s-73.41-43.27,0-104.31Z" transform="translate(148.23 71.77)" fill="#d3819a"/><path d="M2439.85,894.2s44.05,26.28,0,59.5v17s67.23-48.68,0-94.27Z" transform="translate(148.23 71.77)" fill="#d3819a"/><path d="M2767.49,941.34s-41.84-34.57,0-61v-17.1s-59.5,35.55,0,98.14Z" transform="translate(148.23 71.77)" fill="#d3819a"/><path d="M2828.53,880.39s46.37,25.4,0,68.68v17s75.73-64.91,0-99.68Z" transform="translate(148.23 71.77)" fill="#d3819a"/><polygon points="2484.16 608.04 2342.72 712.22 2342.72 528.55 2484.16 528.55 2484.16 608.04" fill="#131a5e"/><rect x="1759.27" y="753.56" width="516.68" height="426.9" fill="#e2a86c"/><rect x="1759.27" y="858.61" width="516.68" height="12.1" fill="#d3819a"/><path d="M1803,739.46s72.58,52.42,131,0h-16.13s-55.44,34.27-109.88-9.07Z" transform="translate(148.23 71.77)" fill="#d3819a"/><rect x="2010.73" y="867.47" width="14.11" height="312.98" fill="#d3819a"/><path d="M1903.83,937.66s36.29,17.85,0,52.72v14.7s62.5-51.41,0-87.7Z" transform="translate(148.23 71.77)" fill="#d3819a"/><path d="M1837,990.69s-49.16-39,0-62.11V915s-66.46,36.63,0,92.38Z" transform="translate(148.23 71.77)" fill="#d3819a"/><polygon points="4466.18 471.16 4397.87 671.27 4404.22 1210.56 4788.93 1210.56 4828.83 1210.56 4676.08 472.35 4466.18 471.16" fill="#d3819a"/><polygon points="1759.27 753.56 1821.83 679.75 2218.32 679.75 2275.95 753.56 1759.27 753.56" fill="#131a5e"/><path d="M3466.13,640.45s-28.11,164.23,14,273.19a155.16,155.16,0,0,1,9.55,39.47c4.51,42.35,10.63,129.51-9.4,171.47,0,0,156.86-2.35,219.37-50.57a94.54,94.54,0,0,1,27.19-14.53c28-9.58,81.5-23.48,120.67-6.61a26.73,26.73,0,0,1,3.94,2.13c13.43,8.65,96.87,61.31,150,69.58,0,0,180.95,32.79,251.29-1.28a72,72,0,0,1,34.11-6.93l47.88,1.77s-9.24-253.5-40.65-341c0,0-22.64-64.36,0-133.19l-136.93-17.36H3560.07Z" transform="translate(148.23 71.77)" fill="#131a5e"/><path d="M4294.07,643.94l-827.93-3.49,88.91-104.18h631.36l20.41,20.42,3.61,3.59,7.06,7.06-.06,1.17c-.13,2.07,1.92,2.8,3.43,2.2Z" transform="translate(148.23 71.77)" fill="#cbe8c5"/><polygon points="3658.71 500.24 4333.57 500.24 4385.02 133.23 3614.37 133.23 3658.71 500.24" fill="#131a5e"/><polygon points="3664.66 178.47 3704.25 461.25 4288.19 461.25 4347.57 178.47 3664.66 178.47" fill="#cbe8c5"/><path d="M4342.25,310.94,4318,399.39a14.43,14.43,0,0,0,7,16.49c28.25,15.48,112.56,52.57,196.51-.44a14.37,14.37,0,0,0,6.39-14.86l-17.35-90.94a63.54,63.54,0,0,0-62.4-51.62h-36.42A72,72,0,0,0,4342.25,310.94Z" transform="translate(148.23 71.77)" fill="#e2a86c"/><polygon points="4581.38 277.44 4571 329.79 4596.32 329.79 4597.07 289.5 4854.08 290.71 4854.08 277.44 4581.38 277.44" fill="#131a5e"/><polygon points="4807.02 1185.64 4875.74 1185.64 4854.08 290.71 4814.02 290.52 4807.02 1185.64" fill="#131a5e"/><polygon points="5122.63 133.23 5778.44 136.96 5770.6 1210.56 5122.63 1201.91 5122.63 133.23" fill="#131a5e"/><polygon points="6312.5 159.59 4959.85 147.9 4959.85 114.34 6312.5 136.96 6312.5 159.59" fill="#d3819a"/><path d="M5531.92,61.45s-26.86,308,6.25,444.68A667.6,667.6,0,0,1,5555,616.57c6,85.5,10.26,223.4-11.64,333.68A264.84,264.84,0,0,1,5528,1001c-11,26.21-27.86,87.44,12.75,157.88h535.43s-67.47-472.83-24.74-646c0,0,54-418.3-15.74-465.53C6035.69,47.38,5534.34,29.93,5531.92,61.45Z" transform="translate(148.23 71.77)" fill="#e2a86c"/><path d="M6149.54,42.56s-21.83,50.71,0,66.47c0,0,21.84,16,31.54-33.23C6181.08,75.8,6188.35,14.9,6149.54,42.56Z" transform="translate(148.23 71.77)" fill="#d3819a"/><path d="M4818.36,48.15s7.22-60.08-26.2-22.59c0,0-23,47,5,65.49,0,0,26.16,14.79,21.89-38.9" transform="translate(148.23 71.77)" fill="#d3819a"/><path d="M5030.73,46.23S4978.3,500,5016.36,657.6c2.43,10,4.48,20.17,6.34,30.34,15.58,84.94,68.93,395.1,33.78,479.73h-237s-30.86-771.76,25.13-917c0,0,37.83-182.87,19.67-207.2C4864.29,43.44,4956.55,23.4,5030.73,46.23Z" transform="translate(148.23 71.77)" fill="#e2a86c"/><rect x="5255.75" y="225.06" width="297.56" height="886.8" fill="#cbe8c5"/><path d="M5476.49,600.12s-55.37,17.44-7.6,51.09c0,0,28.23,16.29,33.66-18.45C5502.55,632.76,5514.49,596.79,5476.49,600.12Z" transform="translate(148.23 71.77)" fill="#ed6f2e"/><polygon points="4212.69 406.75 4193.04 560.91 4232.97 588.48 4257.31 583.61 4282.46 560.91 4256.49 406.75 4212.69 406.75" fill="#e2a86c"/><path d="M4044.81,601.39s40.24,26.34,82.76,0l-17.13-40.91,23.78-71.34s-53.27,14.27-89.41,0l24.73,71.34Z" transform="translate(148.23 71.77)" fill="#d3819a"/><path d="M4067.7,305.46s16.22-10.07,37.32,0l5.57,44.79s-25.32,7.29-47.9,0Z" transform="translate(148.23 71.77)" fill="#d3819a"/><circle cx="4231.81" cy="463.62" r="18.12" fill="#ed6f2e"/><ellipse cx="4262.75" cy="480.54" rx="3.93" ry="4.96" fill="#ed6f2e"/><ellipse cx="4254.36" cy="532.33" rx="19.49" ry="24.27" fill="#ed6f2e"/><ellipse cx="4217.09" cy="510.64" rx="6.17" ry="10.4" fill="#ed6f2e"/><circle cx="4221.98" cy="546.08" r="17.86" fill="#ed6f2e"/><path d="M3606.11,521.57l-8.66-11.77s38.94-34.32,81.8,0l-8.69,23.85-46.32,7.65-13.7-7.65Z" transform="translate(148.23 71.77)" fill="#e2a86c"/><path d="M3597.45,509.8v86.69s39.07,22,81.8,0V509.8S3645.07,541.54,3597.45,509.8Z" transform="translate(148.23 71.77)" fill="#d3819a"/><rect x="3784.61" y="573.75" width="3.56" height="11.57" fill="#131a5e"/><path d="M3637.79,504a4.15,4.15,0,0,0,4-1.75,3.44,3.44,0,0,0,.46-2.61,3.68,3.68,0,0,0-1.56-2.11c-.07-.05-.13-.11-.21-.16l.3.24-.11-.1c-.29-.41.21.39.07.13l-.14-.25c-.16-.24.18.55.05.13,0-.09-.06-.18-.08-.28s-.06-.24-.08-.36-.07-.41,0-.06,0-.11,0-.19,0-.24,0-.36,0-.53,0-.8-.12.62,0,.05c0-.12.05-.23.07-.35.07-.29.15-.57.24-.85H3636c.12.4.23.81.32,1.22.05.2.09.41.13.61s.13.8.07.33,0,.1,0,.2,0,.27,0,.41a.78.78,0,0,1,0,.26c0,.05.12-.61.05-.34,0,.11-.22.67,0,.25s.05-.11,0,0,.21-.27.21-.25-.17.14-.18.18.44-.27.22-.19a4.5,4.5,0,0,0-1.35.88,3.31,3.31,0,0,0-.69,4,3.59,3.59,0,0,0,3.18,1.66,4.76,4.76,0,0,0,3.06-1.32,5,5,0,0,0,1.33-5.39q-.21-.53-.45-1.05a1.47,1.47,0,0,0-.1-.22c.29.46.09.22,0,0a12.68,12.68,0,0,1-.4-1.33c-.05-.22-.08-.45-.13-.67s0,.23,0,.23,0-.28,0-.43a11.82,11.82,0,0,1,0-1.46,2.49,2.49,0,0,0-2.16-2.46,2.53,2.53,0,0,0-2.75,1.79L3633.8,499a2.52,2.52,0,0,0,1.74,3.07,2.56,2.56,0,0,0,3.08-1.74l2.41-7.72-4.91-.66a13.68,13.68,0,0,0,1.24,6.14l.14.3c.11.25.09.2-.06-.14a2.81,2.81,0,0,1,.1.31c.07.29.06.21,0-.25a2,2,0,0,1,0,.25c0,.26,0,.17.05-.29a1.84,1.84,0,0,1-.05.25q-.14.38.12-.24a2.51,2.51,0,0,0-.26.45q.41-.5.15-.21l-.18.18c.34-.26.41-.31.2-.16l-.22.12c.41-.16.49-.19.25-.11l-.19.05c-.21,0-.08,0,.38-.05-.27,0-.16,0,.32.06-.25-.07-.16,0,.28.14a1.85,1.85,0,0,1,.59.62,1.82,1.82,0,0,1,0,1.82,1.28,1.28,0,0,1-.52.51,2.51,2.51,0,0,0,.53-.29,4.55,4.55,0,0,0,2.21-2.69c.58-1.85.07-3.92-.46-5.72a2.54,2.54,0,0,0-2.41-1.84A2.6,2.6,0,0,0,3636,493a9.4,9.4,0,0,0,0,6.13A5.36,5.36,0,0,0,3637,501a2.73,2.73,0,0,0,.31.27c-.09-.07,1.24,1.07.41.32q.45.46-.36-.69a1.67,1.67,0,0,1,0-.86,1.36,1.36,0,0,1,.4-.67c-.19.17-.12.12.21-.16s.44-.17.19-.1c.42,0,.49-.05.22,0l-.6,0a2.51,2.51,0,0,0-2.5,2.5,2.57,2.57,0,0,0,2.5,2.5Z" transform="translate(148.23 71.77)" fill="#ed6f2e"/><polygon points="3921.82 581.57 3871.22 632.17 4138.54 632.17 4085.76 579.39 3921.82 581.57" fill="#d3819a"/><rect x="3871.22" y="632.17" width="267.32" height="45.86" fill="#e2a86c"/><rect x="29.61" width="1650.7" height="767.48" fill="#0032f4"/><polygon points="128.1 60.85 265.44 54.86 265.44 450.66 113.11 450.66 113.11 59.66 128.1 60.85" fill="#e2a86c"/><rect x="265.44" y="54.86" width="429.58" height="174.65" fill="#e2a86c"/><rect x="695.02" y="54.86" width="215.05" height="395.81" fill="#e2a86c"/><polygon points="0 799.66 142.37 657.28 1553.21 657.28 1692.5 796.58 0 799.66" fill="#d3819a"/><rect x="910.06" y="54.86" width="362.61" height="260.58" fill="#e2a86c"/><rect x="1272.67" y="54.86" width="419.83" height="395.81" fill="#e2a86c"/><path d="M91.94,340.9S60,301,91.94,267.29V254.57s-61.66,46.24,0,103.36Z" transform="translate(148.23 71.77)" fill="#d3819a"/><path d="M562.24,336.14v12.61s55.63-34.86,7.42-80.11v17.8S598.59,310.92,562.24,336.14Z" transform="translate(148.23 71.77)" fill="#d3819a"/><path d="M317,86V99s-23.65,10.6,0,30.18v13.05S273,110.43,317,86Z" transform="translate(148.23 71.77)" fill="#d3819a"/><path d="M347.18,86v15.5s31,9.78,0,30.17v10.61S399.38,109.61,347.18,86Z" transform="translate(148.23 71.77)" fill="#d3819a"/><rect x="475.01" y="54.86" width="9.85" height="174.65" fill="#d3819a"/><rect x="265.44" y="54.86" width="12.49" height="174.65" fill="#d3819a"/><polygon points="695.02 54.86 695.02 229.5 679.26 229.5 682.85 54.86 695.02 54.86" fill="#d3819a"/><path d="M911.94,217.75s-32.54-30.92,0-49.64l4.89,8.95s-28.48,8.95,0,31.74Z" transform="translate(148.23 71.77)" fill="#d3819a"/><path d="M952.63,168.11s26.85,26.85,0,43.13v11.39s43.12-33,0-64.9Z" transform="translate(148.23 71.77)" fill="#d3819a"/><rect x="1076.95" y="54.86" width="12.01" height="260.58" fill="#d3819a"/><rect x="910.06" y="54.86" width="8.66" height="260.58" fill="#d3819a"/><rect x="1257.51" y="54.86" width="15.17" height="260.58" fill="#d3819a"/><path d="M1309.87,338s-42.42-31.62,0-53.22v8.49s-29.31,8.48,0,33.93Z" transform="translate(148.23 71.77)" fill="#d3819a"/><path d="M1362.3,280.13v12.34s31.62,14.65,0,42.41v10S1417.83,309.43,1362.3,280.13Z" transform="translate(148.23 71.77)" fill="#d3819a"/><rect x="1475.06" y="54.86" width="16.19" height="395.81" fill="#d3819a"/><rect x="710.47" y="794.96" width="219.16" height="383.4" fill="#e2a86c"/><rect x="929.63" y="797.48" width="398.01" height="380.89" fill="#e2a86c"/><rect x="128.1" y="799.66" width="98.37" height="378.7" fill="#e2a86c"/><path d="M1.14,771.1S13.23,785,41,771.1v-9.55s-23.53,17.6-37.31,0Z" transform="translate(148.23 71.77)" fill="#d3819a"/><rect x="117.04" y="885.25" width="109.43" height="8.28" fill="#d3819a"/><path d="M59.87,965S16,934.33,55.73,908.67l-1.66-14.9s-53.8,45.53,5.8,82.78Z" transform="translate(148.23 71.77)" fill="#d3819a"/><rect x="710.47" y="885.25" width="219.16" height="22" fill="#d3819a"/><rect x="929.63" y="797.48" width="15.62" height="380.89" fill="#d3819a"/><path d="M648.09,763.48s34.24,31,65.29,0h-7.1s-28.38,20.31-55-4.09Z" transform="translate(148.23 71.77)" fill="#d3819a"/><rect x="1128.64" y="799.66" width="13.77" height="378.7" fill="#d3819a"/><path d="M950.78,875.41s-34.56,38.24,4.42,68.39v12.5s-60.3-36.77-5.89-100.74Z" transform="translate(148.23 71.77)" fill="#d3819a"/><path d="M1010.35,872.47s39.71,24.27,0,60.3v11.77s54.41-46.33,0-89Z" transform="translate(148.23 71.77)" fill="#d3819a"/><rect x="254.91" y="229.51" width="450.38" height="210.47" fill="#cbe8c5"/><rect x="308.64" y="275.84" width="249.13" height="123.1" fill="#131a5e"/><polygon points="573.01 269.45 671.02 259.68 671.02 420.52 568.73 405.15 573.01 269.45" fill="#131a5e"/><path d="M392.81,184.73s29.33,126.4,6.47,167.82h22s25.88-146.25-5.61-167.82Z" transform="translate(148.23 71.77)" fill="#d3819a"/><polygon points="591.99 282.53 591.99 305.71 660.42 305.71 660.42 278.12 591.99 282.53" fill="#cbe8c5"/><polygon points="609.28 327.64 609.28 337.39 619.84 337.39 619.84 324.86 609.28 327.64" fill="#cbe8c5"/><polygon points="628.61 324.86 628.61 337.39 636.58 337.39 638.37 324.86 628.61 324.86" fill="#cbe8c5"/><rect x="646.14" y="324.86" width="8.37" height="13.55" fill="#cbe8c5"/><polygon points="654.51 353.36 654.51 343.62 643.95 343.62 643.95 356.15 654.51 353.36" fill="#cbe8c5"/><polygon points="635.18 356.15 635.18 343.62 627.21 343.62 625.42 356.15 635.18 356.15" fill="#cbe8c5"/><rect x="609.28" y="342.6" width="8.37" height="13.55" fill="#cbe8c5"/><polygon points="609.28 373.29 609.28 363.54 619.84 363.54 619.84 376.08 609.28 373.29" fill="#cbe8c5"/><polygon points="628.61 376.08 628.61 363.54 636.58 363.54 638.37 376.08 628.61 376.08" fill="#cbe8c5"/><rect x="646.14" y="362.53" width="8.37" height="13.55" fill="#cbe8c5"/><polygon points="617.19 385.23 617.19 397.98 655.45 400.77 657.34 388.02 617.19 385.23" fill="#cbe8c5"/><path d="M160.41,585.51,184,537.59s14.48-17.2,34.4-16.29H470.71s25.14-.91,35.31,13.58l31.21,50.63Z" transform="translate(148.23 71.77)" fill="#cbe8c5"/><polygon points="226.47 799.66 710.47 799.66 685.46 657.28 308.64 657.28 226.47 799.66" fill="#131a5e"/><path d="M453.91,553.39s9.83,24.83,35.12,2.37c0,0,8.23-20.31-11.84-20.85C477.19,534.91,444.29,529.62,453.91,553.39Z" transform="translate(148.23 71.77)" fill="#131a5e"/><path d="M220.8,544.54s-9.63,19.33,18.18,20.62c0,0,19.24-1.57,12.83-15.37C251.81,549.79,241.65,521.55,220.8,544.54Z" transform="translate(148.23 71.77)" fill="#131a5e"/><path d="M303.14,541.33v20.32s94.63,7,102.12,0V541.33S322.92,530.64,303.14,541.33Z" transform="translate(148.23 71.77)" fill="#131a5e"/><path d="M151.92,666.28s-31.31,49.35,70.21,44.6c0,0,112.92,5.69,72.12-44.6C294.25,666.28,235.42,624.53,151.92,666.28Z" transform="translate(148.23 71.77)" fill="#cbe8c5"/><path d="M219.91,602.11s-63.34,4.92-10.46,20.3c0,0,51,14.76,68.26-2.46C277.71,620,282,592.89,219.91,602.11Z" transform="translate(148.23 71.77)" fill="#cbe8c5"/><path d="M421,660.54s-74.41-7.38-33.21,28.28c0,0,48,28.29,108.85,8.61,0,0,48-9.84,16.6-25.83C513.24,671.6,481.27,653.77,421,660.54Z" transform="translate(148.23 71.77)" fill="#cbe8c5"/><path d="M416.32,600.2s-67.27,13.07-12.54,28.1c0,0,75.64,18.8,89.17,0C493,628.3,533.41,592.74,416.32,600.2Z" transform="translate(148.23 71.77)" fill="#cbe8c5"/><path d="M219.19,673.45s-8.89,6,6.06,8.25C225.25,681.7,239.26,673,219.19,673.45Z" transform="translate(148.23 71.77)" fill="#131a5e"/><path d="M236.15,609.22s-12,1.36-3.07,5C233.08,614.25,247.7,615.39,236.15,609.22Z" transform="translate(148.23 71.77)" fill="#131a5e"/><path d="M452.15,676.41s-16.45,3.73-2.53,8.58C449.62,685,470.61,682.38,452.15,676.41Z" transform="translate(148.23 71.77)" fill="#131a5e"/><path d="M446.37,609.22s-15.88,1.69-2.34,8.69C444,617.91,466.9,613.31,446.37,609.22Z" transform="translate(148.23 71.77)" fill="#131a5e"/><rect x="226.47" y="799.66" width="484" height="378.7" fill="#cbe8c5"/><rect x="277.93" y="868.26" width="393.09" height="255.14" fill="#131a5e"/><path d="M117.21,769.41s324.4,29.74,405.58-1.08l14.44,34.18s-303.74,34.9-430.55-10.83Z" transform="translate(148.23 71.77)" fill="#d3819a"/><path d="M471.53,963.27c.29-.18.6-.35.88-.53,0,0,24.21-106.86,4.7-184.91,0,0-63.15-15-111.07,4.45,0,0-30,114.2,0,180.46l2.16.43a91.48,91.48,0,0,1-3.61,12.67,1.51,1.51,0,0,0,1,1.85,1.53,1.53,0,0,0,1.85-1.05,90.53,90.53,0,0,0,3.66-12.92l3,.54v12.47a1.5,1.5,0,0,0,3,0v-12l3.45.57c-.44,2.89-.89,5.78-1.33,8.67a1.54,1.54,0,0,0,1,1.84,1.5,1.5,0,0,0,1.84-1c.46-3,.93-6,1.39-9l1.75.26-.91,10.64a1.51,1.51,0,0,0,1.5,1.5,1.53,1.53,0,0,0,1.5-1.5l.87-10.2,1.65.23v10.75a1.5,1.5,0,0,0,3,0V967.15l1.68.22a45.31,45.31,0,0,0,.85,10.26,1.5,1.5,0,1,0,2.89-.8,42,42,0,0,1-.75-9.09l3.42.4a42.13,42.13,0,0,0,1.52,12,1.5,1.5,0,0,0,2.89-.79A39.55,39.55,0,0,1,404,968.47l3.72.37a73.53,73.53,0,0,0,.88,11.57,1.51,1.51,0,0,0,1.84,1.05,1.53,1.53,0,0,0,1.05-1.85,67.11,67.11,0,0,1-.78-10.5c2.27.19,4.57.37,6.88.52a103.21,103.21,0,0,0-2,13.44,1.5,1.5,0,0,0,3,0,97.14,97.14,0,0,1,2-13.26l3.2.15q-1.08,4.8-2.17,9.62a1.53,1.53,0,0,0,1.05,1.84,1.51,1.51,0,0,0,1.85-1q1.15-5.14,2.32-10.31,3,.09,5.93.1-1.39,5.12-2.51,10.31a1.54,1.54,0,0,0,1.05,1.85,1.52,1.52,0,0,0,1.84-1.05q1.2-5.61,2.74-11.13,1.85,0,3.66-.09V982a1.5,1.5,0,0,0,3,0v-12q2.67-.15,5.25-.39v9.91a1.5,1.5,0,0,0,3,0V969.21l.56-.07a23.54,23.54,0,0,0,1.77,6.61,1.5,1.5,0,0,0,2.05.53,1.54,1.54,0,0,0,.54-2,18.69,18.69,0,0,1-1.4-5.51c1.34-.21,2.65-.45,3.92-.72a56.21,56.21,0,0,0,2.27,12.74c.56,1.85,3.45,1.06,2.89-.8a53.34,53.34,0,0,1-2.19-12.63c.92-.24,1.82-.49,2.69-.76.73,2.76,1.5,5.5,2.37,8.22a1.5,1.5,0,0,0,2.89-.79c-.89-2.79-1.68-5.6-2.42-8.43.62-.23,1.22-.48,1.8-.74A28.41,28.41,0,0,0,470,973a1.54,1.54,0,0,0,1.85,1.05,1.52,1.52,0,0,0,1.05-1.84A25.76,25.76,0,0,1,471.53,963.27Z" transform="translate(148.23 71.77)" fill="#ed6f2e"/><path d="M288.59,993.9c.13.4,0,0,0-.13s-.07-.2-.11-.3-.17-.5-.24-.76a12.08,12.08,0,0,1-.35-1.44l-.06-.37v0l.34-.12s25.26-66.7,4.21-214.38c0,0-52-15.11-82.16,0,0,0-24.62,159.26,0,208.22l1.22.32-2.25,10.4a1.5,1.5,0,1,0,2.89.79q1.14-5.24,2.27-10.47l.85.2c-.06,3.11,0,6.23.18,9.34a1.5,1.5,0,0,0,3,0q-.25-4.32-.2-8.65l.46.1a72,72,0,0,0,.42,12.54,1.55,1.55,0,0,0,1.5,1.5,1.51,1.51,0,0,0,1.5-1.5,71.43,71.43,0,0,1-.45-11.88l1.5.32v6.25a1.51,1.51,0,0,0,1.5,1.5,1.53,1.53,0,0,0,1.5-1.5v-5.62l1,.21v11.83a1.5,1.5,0,0,0,3,0V989l1.83.34v6.93a1.51,1.51,0,0,0,1.5,1.5,1.6,1.6,0,0,0,1.25-.69l-.78,5a1.54,1.54,0,0,0,1.05,1.84,1.5,1.5,0,0,0,1.84-1l1.32-8.5a49.88,49.88,0,0,0,.59,7.1,1.52,1.52,0,0,0,1.85,1.05,1.55,1.55,0,0,0,1.05-1.85,44,44,0,0,1-.42-9.8l1.54.23V1000a1.51,1.51,0,0,0,1.5,1.5,1.53,1.53,0,0,0,1.5-1.5v-.16a1.4,1.4,0,0,0,.55.58,1.52,1.52,0,0,0,2.05-.53,39,39,0,0,0,3.49-7.53l.28,0a64.42,64.42,0,0,1-3,8,1.54,1.54,0,0,0,.54,2,1.5,1.5,0,0,0,2.05-.53c.68-1.51,1.3-3,1.88-4.57-.67,2.87-1.44,5.72-2.33,8.53-.58,1.85,2.32,2.64,2.9.8a119.43,119.43,0,0,0,3.43-13.74l.2,0a1.15,1.15,0,0,0,0,.26v8.24a1.51,1.51,0,0,0,1.5,1.5,1.53,1.53,0,0,0,1.5-1.5v-8.24s0,0,0-.06l2.17.12c-.07.41-.13.82-.2,1.22-.23,1.26-.53,2.51-.87,3.74a1.52,1.52,0,0,0,1,1.84,1.53,1.53,0,0,0,.64,0q-.72,3-1.56,6.06a1.5,1.5,0,0,0,2.89.8c1.26-4.47,2.3-9,3.15-13.53h.54c-.06,3,0,5.94.11,8.9a1.5,1.5,0,0,0,3,0c-.14-3-.17-6-.11-8.94l1.14,0a63.43,63.43,0,0,1,.09,7.55,1.5,1.5,0,0,0,1.5,1.5,1.54,1.54,0,0,0,1.5-1.5c0-.51,0-1,0-1.52a1.67,1.67,0,0,0,.54.55,1.5,1.5,0,0,0,2.05-.54,1.71,1.71,0,0,0,.15-1.16c0-.11,0-.23-.05-.34,0,.4,0,0,0-.13s-.06-.46-.08-.7c-.05-.48-.08-1-.1-1.46q0-1.34,0-2.67h.13a31.61,31.61,0,0,0,.88,7.25,1.5,1.5,0,1,0,2.89-.8c-.14-.58-.26-1.16-.37-1.75,0-.27-.09-.55-.13-.82a1.92,1.92,0,0,1,0-.22c0-.14,0-.27-.05-.4a27.53,27.53,0,0,1-.19-3.51c0-.06,0-.12,0-.17l.33-.06A89.83,89.83,0,0,0,286,1010.3c.62,1.82,3.52,1,2.89-.8a85.86,85.86,0,0,1-4.05-17.18,2.33,2.33,0,0,0-.14-.55l.24-.06a15.39,15.39,0,0,0,1.76,5,1.51,1.51,0,0,0,2,.54,1.52,1.52,0,0,0,.54-2A7.16,7.16,0,0,1,288.59,993.9Zm-53.67,1.59v-5.6l.84.15Zm10.8,2.85v-6.76c1,.13,2,.27,3,.39A35.22,35.22,0,0,1,245.72,998.34Z" transform="translate(148.23 71.77)" fill="#ed6f2e"/><rect x="1327.64" y="797.48" width="364.86" height="380.89" fill="#131a5e"/><polygon points="1327.64 796.91 1327.64 864.04 1327.64 897.92 1692.5 897.92 1692.5 796.91 1327.64 796.91" fill="#cbe8c5"/><path d="M1208.48,741.51s-11.4,17.1,0,20.91h303.16s13.31-14.26,0-20.91Z" transform="translate(148.23 71.77)" fill="#131a5e"/><path d="M1407.44,781s-12.85,8.32,0,15.12C1407.44,796.15,1426.34,790.11,1407.44,781Z" transform="translate(148.23 71.77)" fill="#131a5e"/><path d="M1438.43,779.14s-15.12,7.94,0,15.5C1438.43,794.64,1462.63,779.14,1438.43,779.14Z" transform="translate(148.23 71.77)" fill="#131a5e"/><path d="M1474.66,781s-14.71-8.65-12.09,5.86c0,0,4.43,11.9,12.09,4.64C1474.66,791.53,1480.91,784.85,1474.66,781Z" transform="translate(148.23 71.77)" fill="#131a5e"/><path d="M1497,778.47s-10.48-.68-8.67,7.7c0,0,0,8,6.05,4.76C1494.42,790.93,1508.53,785.37,1497,778.47Z" transform="translate(148.23 71.77)" fill="#131a5e"/><path d="M1126.88,695.71H777.22A11.43,11.43,0,0,1,766.28,681l20-66.22A13.69,13.69,0,0,1,799.38,605h281A12.7,12.7,0,0,1,1091,610.7l45,68.06A10.92,10.92,0,0,1,1126.88,695.71Z" transform="translate(148.23 71.77)" fill="#cbe8c5"/><path d="M934.73,593.89h28s-26.82-74.37,0-101.19c0,0,21-26.21,24.51,35.36,0,0,8.41,9.14,14.5-.61,0,0,9-47.55-21.39-54.25C980.4,473.2,920.08,461.62,934.73,593.89Z" transform="translate(148.23 71.77)" fill="#cbe8c5"/><polygon points="1156.22 665.66 1158.58 639.17 1196.4 636.84 1196.4 645.57 1170.67 649.07 1173.69 663.04 1156.22 665.66" fill="#cbe8c5"/><polygon points="1049.08 663.04 1049.08 642.66 1021.13 642.66 1028.7 631.02 1057.81 631.02 1063.63 665.66 1049.08 663.04" fill="#cbe8c5"/><path d="M1345.56,541.58l-38.88-14.66s-58-14.66-65.64,17.2l-30-2.54,10.2,35-10.2,66.35s10.2,16.11,21,13.79c0,0,73.51,13,85.51-3.6l-.47-20.39s44.91,7.07,50.7-13.38C1367.86,619.33,1383.16,556.23,1345.56,541.58ZM1330,618.05V556.23c22.65-1.27,30.33,29.28,30.33,29.28C1364.21,610.33,1330,618.05,1330,618.05Z" transform="translate(148.23 71.77)" fill="#cbe8c5"/><path d="M815.79,695.71H777.22A11.43,11.43,0,0,1,766.28,681l20-66.22A13.69,13.69,0,0,1,799.38,605h4.85Z" transform="translate(148.23 71.77)" fill="#131a5e"/><path d="M1126.88,695.71h-45.09l4.07-89.46a12.57,12.57,0,0,1,5.13,4.45l45,68.06A10.92,10.92,0,0,1,1126.88,695.71Z" transform="translate(148.23 71.77)" fill="#131a5e"/><polygon points="1553.21 657.28 1553.21 450.66 1692.5 450.66 1692.5 797.48 1553.21 657.28" fill="#131a5e"/><path d="M6410.65,620.85C6337.52,654,6288.76,756.4,6288.76,756.4A198.79,198.79,0,0,0,6264,795.25c-.44-41.61,24.22-77.86,24.22-77.86,34.54-42.9,30.79-131.64,30.79-131.64-9.75-45.83,32-132.62,32-132.62-73.35,30-113,221.11-123.06,276.53a1048.27,1048.27,0,0,0-49.39-124.41c-49.73-114.09-187.23-95.56-187.23-95.56,55.59,10.72,102.39,95.56,102.39,95.56,77,56.56,109.22,145.3,109.22,145.3,21.55,30,14.55,112.87,10.64,146.46-18.8-42.21-47.94-95.68-81.83-116.23,0,0-96.54-47.78-129.69-157,0,0-13.68,156,74.1,237,0,0,100.45,65.33,95.57,138.47,0,0,14.63,113.11-1,130.67l65.33,15.6,14-27.48,55.28,3.1c54.61-67.28,21.45-245.73,21.45-245.73-9.75-80.94,77-155,77-155,70.21-52.66,80.93-163.83,80.93-163.83C6467.21,600.38,6410.65,620.85,6410.65,620.85Z" transform="translate(148.23 71.77)" fill="#cbe8c5"/><polygon points="6834.54 884.97 6834.54 922.53 6717.19 1000.76 6678.07 987.46 6743.01 871.08 6760.22 803.61 6799.33 729.55 6834.54 729.55 6834.54 884.97" fill="#cbe8c5"/><polygon points="7587.31 1018.26 7441.86 914.36 7446.69 729.55 7491.4 729.55 7580.8 917.99 7587.31 1018.26" fill="#cbe8c5"/><polygon points="6701.68 987.91 7574.43 987.91 7464.16 904.71 6819.84 904.71 6701.68 987.91" fill="#e2a86c"/><rect x="6701.68" y="987.91" width="872.75" height="198.49" fill="#d3819a"/><polygon points="7464.16 729.55 7526 729.55 7710.47 987.91 7574.43 987.91 7464.16 729.55" fill="#d3819a"/><polygon points="6701.68 987.91 6573.19 987.91 6723.63 729.55 6819.84 729.55 6701.68 987.91" fill="#d3819a"/><rect x="7574.43" y="987.91" width="136.04" height="198.49" fill="#e2a86c"/><polyline points="6701.68 987.91 6701.68 1186.4 6573.19 1186.4 6573.19 987.91" fill="#e2a86c"/><rect x="6819.84" y="729.55" width="644.32" height="175.16" fill="#131a5e"/><path d="M6758.83,822.27h-5.91a46.58,46.58,0,0,0,.56-12.75s-.63-1.61-1.82-4.44q5-5.76,10-11.5c2.83-3.26,3.2-8.11,0-11.31-2.9-2.9-8.47-3.28-11.32,0L6744.5,789c-1.92-4.09-4.1-8.61-6.53-13.41a27.78,27.78,0,0,0,5.63-4,8.07,8.07,0,0,0,0-11.32,8.19,8.19,0,0,0-11.32,0l-.29.26c-.42.23-.85.62-1.25.85l-.24.12c-.92-1.64-1.85-3.3-2.8-5l.64,0c4.17-.19,8.2-3.55,8-8-.19-4.18-3.52-8.2-8-8l-10.19.44-1.51-2.28,8.36-5.43a8.18,8.18,0,0,0,2.87-11c-2.11-3.6-7.31-5.23-10.95-2.87l-9.65,6.27c-1.47-1.88-3-3.72-4.47-5.49.62-.35,1.24-.72,1.84-1.11,8.62-5.57.61-19.42-8.07-13.81a22.72,22.72,0,0,1-5.69,2.67,74.23,74.23,0,0,0-8.66-6.61A49.17,49.17,0,0,1,6689,695c3.45-2.58,5.22-6.91,2.87-10.94-2-3.4-7.47-5.48-10.95-2.87A70.34,70.34,0,0,0,6665,697.49l-.37.09v-2.82c0-10.29-16-10.31-16,0v7.29q-2.91.94-6,2.07c.27-1.1.56-2.19.86-3.27,2.76-9.94-12.67-14.18-15.43-4.26a106.41,106.41,0,0,0-2.92,15l-.86.44-7.83-7c-3.13-2.78-8.27-3.32-11.31,0-2.79,3-3.34,8.34,0,11.31l4.71,4.18q-2.73,1.89-5.31,4c-.89-3.42-4.08-6.27-7.74-6.11a8.14,8.14,0,0,0-8,8v10.16a7.85,7.85,0,0,0,.93,3.65c-.23.35-.45.7-.67,1l-1.2-1.94c-2.21-3.55-7.25-5.25-10.95-2.87s-5.23,7.14-2.87,11q2.7,4.33,5.38,8.67l-2.31-1c-3.84-1.63-8.75-1.28-10.95,2.87-1.81,3.42-1.24,9.2,2.87,10.94l11.88,5h0c.32,2.09.85,5.31,1.65,9.38a42.51,42.51,0,0,1-6-2.29c-3.91-1.83-8.63-1.09-10.95,2.87-2,3.47-1.06,9.1,2.87,11a65.2,65.2,0,0,0,18,5.44c.45,1.66.93,3.38,1.43,5.12-2.51-.06-5-.22-7.54-.52-4.3-.49-8,4-8,8,0,4.74,3.69,7.51,8,8a81.63,81.63,0,0,0,12.79.47c.78,2.09,1.6,4.2,2.47,6.31-1.31.49-2.61,1-3.9,1.49-4,1.57-6.82,5.36-5.59,9.84,1.05,3.83,5.79,7.16,9.84,5.58,1.43-.55,2.86-1.1,4.3-1.63q-3,5.19-5.95,10.39a8,8,0,1,0,13.82,8.08l2.79-4.88c.3.44.61.88.92,1.31a11.3,11.3,0,0,0-1,3.51c-.65,5.44-1.06,10.89-1.26,16.36-.36,10.3,15.64,10.29,16,0,.05-1.37.11-2.75.19-4.12a72.16,72.16,0,0,0,8,6.24,10.23,10.23,0,0,0-.33,1.85,55.35,55.35,0,0,1-2.77,13.08c-1.35,4.1,1.57,8.73,5.59,9.84a8.15,8.15,0,0,0,9.84-5.59,70.51,70.51,0,0,0,3-13.43c2.22-.35,5.43-.89,9.38-1.68a26.28,26.28,0,0,0,6,6.81,8.72,8.72,0,0,0,5.66,2.35,8.14,8.14,0,0,0,5.65-2.35c2.55-2.77,3.42-8.09.39-11,5.35-1.45,11.08-3.2,16.91-5.27a31.53,31.53,0,0,0,5.2,7.26c2.9,3,8.43,3.14,11.31,0a8.15,8.15,0,0,0,0-11.31,17.55,17.55,0,0,0-1.27-1.45l-.29-.42-.06-.1a130.6,130.6,0,0,0,15.53-8.35l7.77,2.66c4,1.35,8.92-1.55,9.84-5.59a8.09,8.09,0,0,0-3-8.49,58.65,58.65,0,0,0,8.45-10.41h12.24a8,8,0,0,0,0-16Z" transform="translate(148.23 71.77)" fill="#ed6f2e"/><path d="M7403.66,780.35h-12.34a73.56,73.56,0,0,0-.16-14,110.82,110.82,0,0,0,10.74-9.45c7.28-7.31-4-18.62-11.31-11.31-2.15,2.15-4.38,4.17-6.7,6.09-.53-.42-1.1-.86-1.72-1.33.1-.27.18-.54.29-.8,0-.05.7-1.52.8-1.72a51.88,51.88,0,0,1,3-5.21c2.3-3.51.81-9-2.87-10.95a8.2,8.2,0,0,0-10.95,2.87,53.82,53.82,0,0,0-3.73,6.73c-2.48-1.49-5.17-3-8.07-4.51a46.62,46.62,0,0,1,3.6-3c3.49-2.53,5.2-6.95,2.87-10.94-2-3.45-7.43-5.43-10.95-2.87a74.14,74.14,0,0,0-11.05,9.8q-5.22-2-11-3.7a116.32,116.32,0,0,0,10.42-7.43c3.38-2.7,2.81-8.5,0-11.32-3.34-3.34-7.93-2.7-11.32,0A86.22,86.22,0,0,1,7315,718.25a6.34,6.34,0,0,0-3.15,3.3c-.29,0-.59-.06-.88-.09a20,20,0,0,1,4.24-10.64c2.59-3.46.56-8.94-2.87-11-4.08-2.39-8.35-.6-10.94,2.87a33.42,33.42,0,0,0-6.47,18c-2.4,0-4.82.14-7.28.32v-6.88c0-10.3-16-10.31-16,0v9.1c-.68.13-1.38.29-2.07.44l-1.14-.32-.49-.13a2,2,0,0,0-.27-.14,20.18,20.18,0,0,1-3-1.76l-.51-.44c-.39-.39-.77-.78-1.17-1.16a5.49,5.49,0,0,0-.43-.39s0,0-.14-.22c-.4-.55-.75-1.14-1.1-1.73a8,8,0,0,0-13.82,8.07,30.4,30.4,0,0,0,7.2,8.26l-.62.84a22,22,0,0,1-8-5,8,8,0,0,0-13.59,6.25c-7.68-2-13.58,9.85-5.71,14.87l12.06,7.68q-1.72,3.16-3.41,6.53l-.61-.42c-3.45-2.4-9-.74-10.95,2.87-2.16,4.09-.8,8.39,2.87,11l2.11,1.46a145.43,145.43,0,0,0-4.78,14.49,41.16,41.16,0,0,1-4-2.32c-3.61-2.37-8.84-.72-10.94,2.87a8.14,8.14,0,0,0,2.87,11,50.79,50.79,0,0,0,8.89,4.65c-.16,1.34-.31,2.68-.42,4a116.84,116.84,0,0,1-13.25-5.29c-3.89-1.85-8.63-1.08-10.94,2.87-2,3.49-1,9.08,2.87,10.95a146.7,146.7,0,0,0,21.39,8.25q.3,3.15.86,6.3H7214c-10.3,0-10.31,16,0,16h12.11q1,2.52,2.27,5a33.71,33.71,0,0,0-5.17,3.6c-3.22,2.7-3,8.57,0,11.31,3.42,3.14,7.86,2.88,11.3,0,.29-.2.6-.4.91-.59.53-.33,1.08-.6,1.63-.88.33-.12.66-.23,1-.33a20.28,20.28,0,0,1,2.43-.54,5.82,5.82,0,0,0,1.36-.43c1.64.77,3.48,1.6,5.49,2.47v5.2c0,4.18,3.68,8.19,8,8a8.21,8.21,0,0,0,7.91-6.89c4.92,1.77,10.25,3.51,15.88,5.1v9.69c0,10.29,16,10.31,16,0v-5.87c4.09.8,8.26,1.46,12.47,1.95a64.79,64.79,0,0,0,1.13,11.41c.78,4.25,5.94,6.66,9.84,5.59,4.47-1.23,6.37-5.58,5.59-9.84a38.55,38.55,0,0,1-.6-6.24c1.81,0,3.62-.06,5.42-.16a11.24,11.24,0,0,0,.86,3,61.31,61.31,0,0,0,8.93,14.2c2.66,3.26,8.6,3,11.32,0,3.17-3.46,2.83-7.84,0-11.31l-.5-.61c-.3-.41-.59-.82-.88-1.24-.66-1-1.29-1.92-1.89-2.92s-1.27-2.23-1.84-3.37a76.68,76.68,0,0,0,9.55-2.88l.22-.4,7.64.52c4.31.29,8-3.89,8-8,0-4.55-3.63-7.67-7.92-8,2.13-4.49,4.55-9.76,7.06-15.55h16.16c10.29,0,10.31-16,0-16h-9.59c1.52-3.92,3-7.94,4.42-12l7.29-.49c4.31-.29,8-3.47,8-8,0-4.11-3.66-8.29-8-8l-2.15.14c1.31-4.67,2.46-9.33,3.39-13.91h14.65C7414,796.35,7414,780.35,7403.66,780.35Z" transform="translate(148.23 71.77)" fill="#ed6f2e"/><polygon points="6738.73 247.88 6738.73 586.19 7559.62 594.91 7566.38 236.26 6738.73 247.88" fill="#131a5e"/><polygon points="6288.07 1104.44 6531.52 1104.44 6500.29 1277.14 6312.5 1277.14 6288.07 1104.44" fill="#131a5e"/><path d="M6685.28,273l27.13-5.21,5.81-1.11,3.87-.75c-4.09.46-4.92.59-2.49.41,2,.12,5.37,1-1.24-.43q3.39,1-2.39-1.11-9.37-17.37-7.85-9.4l15.72-27.68c3.48-.53,7.88-.85,11.23,1,4.41,2.39,2.39,2.13,1.39.75-1.1-1.53-2.48-3-3.66-4.44a57.19,57.19,0,0,0-8.55-8.63c-8.62-7-18.58-12.84-29.63-15.08-21.63-4.37-46.31,1.55-60.72,19.22-9.92,12.16-13.22,27.35-5.47,41.66,5.1,9.43,14.06,15.95,23.41,20.69,1.72.87,3.46,1.73,5.14,2.68.83.47,1.63,1,2.46,1.47,2.88,1.69-1.45-.14-1.17-1,0,.07,2.23,2,2,1.92-.05,0-2.69-3.78-1.46-1.76,1.41,2.33-.88-3.92-.36-.95.23,1.34.72,2.69,1,4a78.49,78.49,0,0,0,12.41,27.58c2.74,3.92,5.64,7.72,8.25,11.72,1.3,2,2.45,4.07,3.62,6.14.49.87,2.08,3.9-.08-.59a32.7,32.7,0,0,1,1.48,4.09,77.51,77.51,0,0,1,2.05,7.6c.26,1.14.48,2.29.69,3.44.12.68.89,5.66.4,2.24-.45-3.18,0,.62.14,1.4q.23,2.21.42,4.41c.25,2.94.45,5.88.65,8.82.77,11.26,8,20.55,19.51,22.1s21.08-5.38,24.69-16.12l9.81-29.22c1.58-4.72,3.13-9.44,4.75-14.14.25-.74.53-1.47.77-2.21.85-2.56-1.21,2.28-1.57,2.86-1.39,2.19-.54.68.12.05a7.21,7.21,0,0,1-3.75,2.55c-1.66.62-1.92.75-.77.36,1.85-.34,3.71-.87,5.57-1.22,2.53-.49-2.55.33-2.41.31,2.42-.33,4.94-.61,7.39-1a78,78,0,0,0,13.3-3.17c10.59-3.59,20.79-8.63,29.38-15.86,13.4-11.29,12.88-30.69,1.67-43.2-7.5-8.37-18.79-12.18-29.21-15.45-1.89-.6-3.78-1.17-5.65-1.8l-2.41-.83c-4.6-1.52,1,.45.91.48-.68.37-4.38-2.34-5.1-2.75s-2.46-1.91-.09.09c2.76,2.32-.39-.56-1-1-3.06-2.43,2.67,3.48-.28-.44-1.66-2.21,1,4.29.65,1.55-.12-.9-.42-1.81-.59-2.72a27.89,27.89,0,0,0-12.62-18.62c-9.87-6.36-23.91-3.51-31.94,4.44-5.41,5.35-8.25,11.9-11,18.86a81.44,81.44,0,0,0-5.26,34.24c.7,11.73,9.84,23.07,22.5,22.5,11.58-.52,23.25-9.92,22.5-22.5-.18-2.93,0-5.81,0-8.74,0-4.33-.66,2.6-.1-.09.3-1.43.52-2.87.86-4.29.61-2.57,1.54-5,2.29-7.53s-2,3.38.15-.24c5.66-9.77-6,8.49-17.31,4.48L6715.3,262q-4.91-11.16-3.6-5.42a27.46,27.46,0,0,0,.49,2.71,46.8,46.8,0,0,0,3.16,8,42.12,42.12,0,0,0,8.24,11.41c7,7.14,15.82,11.41,25.12,14.79,3.72,1.35,7.53,2.42,11.28,3.65,1.08.35,2.14.71,3.2,1.09q3.51,1.37-.68-.38c.28.05,4.31,1.8,4.27,2.24q-3.73-3.14-1.12-.65-7-7-1.8-18.42a9.76,9.76,0,0,1,4-4.13l-1.41,1c-2,1.16-3.86,2.43-5.88,3.51-.57.3-6.58,3-3.51,1.79s-3.14,1.05-3.73,1.23q-2.86.9-5.78,1.56c-1.4.31-4.54,1.52-5.9,1.08q7.73-1.05-2.83.37c-.71.09-1.43.19-2.14.31-10.88,1.67-21.09,7.64-26.79,17.26-4.92,8.3-7.33,18.69-10.39,27.8l-9.19,27.34,44.2,6c-1.39-20.43-3.53-41.16-14.66-58.92-4.21-6.73-9.39-12.82-13.4-19.68-.66-1.14-1.52-4-2.54-4.84,2,1.67,1.24,3.53.56,1-.28-1.05-.61-2.07-.87-3.12-1.43-5.7-2.61-11.27-5.56-16.49-5-8.83-13.31-14.86-22.16-19.39-1.5-.76-3-1.49-4.5-2.29-1.11-.59-3.11-2.38-4.35-2.61,2.81.52,2.76,2.63,1.11.74a15.72,15.72,0,0,0-2-2.11c.49.27,3,4.3,1.17,1.08a13.4,13.4,0,0,1,1.62,6.22c-.19-3.69-.12,1.31-.25,1.83s-2.31,4.63-.28,1.46c-.09.14-3,3.21-1.2,1.66.75-.66,1.38-1.47,2.12-2.16.44-.41,1.41-1,1.7-1.5-1.54,2.72-3,1.94-.88.87.87-.44,1.78-1,2.61-1.52,3.51-2.09-3.09.88-.53.11,1.7-.51,3.35-1.12,5.09-1.52a28.23,28.23,0,0,0,3-.57c-.21.08-4.56.24-2.2.4,1.74.12,3.56,0,5.32,0,4.47.15-1.53,0-1.47-.22,0-.08,3.47.79,3.68.85,1,.27,1.92.68,2.89.9,2.64.62-4.76-2.47-.49-.23,1.8.94,3.58,1.88,5.28,3a17.64,17.64,0,0,0,2.5,1.74c-1.17-.43-3.14-2.7-1-.64,1.65,1.6,3.28,3.15,4.77,4.9,3.77,4.42,6.9,8.23,11.73,11.69,7.5,5.35,15.75,5.73,24.54,4.39,5-.77,11.16-6,13.45-10.34,3-5.68,3.27-11,2.27-17.34-1.59-9.93-10.21-17-19.12-20.24-6.82-2.49-14.15-2-21.15-.85-12.68,2.13-25.3,4.83-37.93,7.25-11.58,2.23-19.25,16.75-15.71,27.68,4,12.36,15.26,18.1,27.67,15.72Z" transform="translate(148.23 71.77)" fill="#cbe8c5"/><path d="M6866.57,386.85c-2.79,21.29-6.34,47.24,12,62.81a85.59,85.59,0,0,0,13.28,9.07c1.71,1,3.37,2,5.07,3q3,2.1-1-.82a27.06,27.06,0,0,1,2.12,2q-2.91-4.12-1-1.14-1.79-4.95-.73-1.47c-.47-3.59-.58-4.14-.35-1.64a44.86,44.86,0,0,0,1.12,7.39,28.74,28.74,0,0,0,18.65,18.93c14.56,4.94,29.51-2.37,37.05-15.22,6.5-11.09,6.58-25.9,2.46-37.79-4-11.58-10.84-21.08-18.61-30.41-3-3.63-6.24-7.09-9.48-10.53-.69-.71-1.36-1.42-2-2.15q-2.37-2.76.7,1.11a21.3,21.3,0,0,1-1.49-2.47,10.86,10.86,0,0,1,1.74,5.91c-.64-11.73-9.9-23.06-22.5-22.5-11.65.53-23.19,9.92-22.5,22.5.62,11.52,5.53,20.07,13.24,28.36,2.74,3,5.54,5.85,8.19,8.9,1.16,1.33,2.28,2.7,3.42,4.06,3.77,4.48-2.46-3.77.74,1,2.13,3.15,3.95,6.32,5.79,9.65q1,2.26-.61-1.44c.38,1.06.72,2.13,1,3.22l.38,1.62c-.32-3.25-.39-3.61-.2-1.06a24.36,24.36,0,0,1-.11,3.31l.25-2.68q-1.08,3.46.74-1.29-1.52,2.46.1.05c4.54-3.17,8.62-7.08,14.72-5.08l9.94,7.72q2.66,12,2.06,6c.08-10.63-6.26-21-14.2-27.61a77,77,0,0,0-10.78-7.6c-.85-.5-9-4.47-8.84-5.38l2.29,1.7a22.76,22.76,0,0,1-2-2c1.85,2.56,2.33,3.12,1.46,1.68s-.53-.79.8,1.95c-1.71-4.2-.26,4-.05-.28.12-2.31,0-4.65.09-7,.26-8.17,1-16.31,2-24.42.69-5.29-3-12.34-6.59-15.91-3.91-3.91-10.31-6.84-15.91-6.59-5.82.26-11.86,2.17-15.91,6.59-4.33,4.7-5.77,9.63-6.59,15.91Z" transform="translate(148.23 71.77)" fill="#cbe8c5"/><path d="M6876.78,250.32c17,25.29,35.92,52.52,64,66.45,13.66,6.78,28,9,42.36,13.39,1.54.46,3,1,4.57,1.51,3.82,1.25-3.9-2.08-.43-.17,1.35.74,2.69,1.47,4,2.23.38.21,1.22,1,1.63,1.08-2.62-.2-3.24-3-1-.62.44.47.92,1,1.39,1.4,2.08,1.91-1.06.72-1-1.4,0,.63,1.56,2.63,1.94,3.22,2,3.18-1.53-4.73,0-.13.55,1.64,1.09,3.27,1.57,4.93,1.8,6.39,3,13,5.39,19.15,4.2,10.73,10,19,19.71,25.48,14.3,9.49,34.13-3,33.86-19.42l-.3-17.83-.13-7.92c0-1.65-.07-3.3-.09-4.95-.07-7.23,1.37,4.63-4.32,9.06l-9.93,5.78,1.35-.53c2.36-.48,1.9-.46-1.36.05.66-.56,4-.22,4.84-.23a89.2,89.2,0,0,1,9.8.61c6.5.71,13,1.87,19.52,2.14a61.66,61.66,0,0,0,21.48-2.67c9.66-3.17,16.92-8.87,24.72-15.18.83-.67,1.66-1.38,2.52-2-4.78,3.55-.26.36.67-.21l1.38-.81c2.25-1.13,1.87-1-1.15.31.2-.54,3.79-1.18,4.35-1.31l1.48-.32c2.47-.42,2-.37-1.46.15.09-.28,4.25-.29,4.63-.3,3.14-.11,6.28,0,9.42,0,15.13.36,30.93-.15,44.06-8.73a52,52,0,0,0,23.65-43.18c.14-16.19-7.2-32.36-18.52-43.76-22.51-22.67-57.63-27.26-88-27.67s-60.66,3.48-91,3.82a706.08,706.08,0,0,1-92.39-5l-4.84-.6c-6.48-.78,4.72.69-1.75-.23-3.86-.54-7.71-1.14-11.57-1.7-8.84-1.28-16.31-.07-22.73,6.68a29.61,29.61,0,0,0-7.9,20.52c.14,21.15,19.31,30.72,36.06,37.88a222.8,222.8,0,0,0,43,13.91c8.41,1.71,17,2.91,25.49,3.79,2.65.27,5.31.46,8,.68a28.39,28.39,0,0,0,4,.4q-5.62-.81-2-.24c.88.15,1.76.32,2.63.51,1.28.29,2.51.71,3.78,1,4.25,1.1-4.2-2.32-.76-.26,3.86,2.31-3.87-3.75-.68-.62q2.31,2.56-1.25-1.67,1.52,2.85-.47-1.31c.36.24,4.35,10.6,3.31,8.39a31.43,31.43,0,0,0,5.79,8.6,39.72,39.72,0,0,0,10.62,7.94c16.57,8.28,36.14,12.1,54.59,11.37,17-.68,32.61-5.56,48.61-10.79,3.84-1.26,7.7-2.48,11.6-3.51,2.53-.68,7.3-2.62,9.86-2.15l-2.73.36c1.08-.12,2.16-.21,3.24-.28,2.15-.12,4.27,0,6.42,0,5.21,0-4.64-1.48.34.11,1.2.38,8,2.77,2.37.34,8.46,3.68,20.59,4.72,27.27-3.52,4.08-5,6.8-9.68,7.68-16.18a29.49,29.49,0,0,0-3.43-18.06c-4.58-8.6-13.59-13.71-22.71-16.15-13.54-3.64-27.37-6.64-41.14-9.29-30.7-5.91-61.2-8.37-92.15-2.92-11.62,2-19.21,16.88-15.71,27.68,4,12.5,15.22,17.91,27.68,15.72,1.26-.23,2.52-.44,3.79-.65,2.51-.41,1.57-.55-.28,0,2.53-.8,5.92-.61,8.57-.78,5.41-.35,10.82-.44,16.24-.31s10.85.49,16.26,1c2.56.24,5.11.55,7.66.86,3.46.41-3.69-.59-.25,0,1.59.26,3.19.47,4.78.73,10.54,1.7,21,3.89,31.39,6.27,5.36,1.22,10.7,2.5,16,3.79,2.42.58,4.86,1.39,7.29,1.87,1.16.39.94.28-.66-.32a4.87,4.87,0,0,1-2.49-1.46c-7.25-5.69-6.15-16.52-.37-23.65l27.27-3.51c-11.27-4.9-22.73-7.62-35.09-6.34a149.4,149.4,0,0,0-31.52,7.18c-9.07,3-18.12,6.27-27.52,8.07a21.76,21.76,0,0,1-3.55.61c4.8,0,1.88-.23.63-.14-2.39.18-4.77.37-7.18.42s-4.79,0-7.19-.11c-1.2-.06-2.39-.19-3.59-.25-5.93-.35,4.69,1-1.15-.1a111.46,111.46,0,0,1-14-3.38c-1.14-.37-2.26-.79-3.4-1.17-1.76-.58-3.2-.1.62.38a12.81,12.81,0,0,1-2.75-1.36c-3.17-1.48.61,1.22,1.67,2l.8,1.13q-1.41-2.69-.2-.18c1.38,2.55.26.39.05-.3a47,47,0,0,0-4.08-9.44,39.57,39.57,0,0,0-14.21-13.86c-9.13-5.21-19.42-6.61-29.71-7.53-2-.17-4-.31-5.95-.49-1.19-.1-2.38-.22-3.57-.35-.77-.08-4.62-.48-1.47-.13s-.68-.11-1.45-.22c-1.18-.18-2.36-.38-3.54-.58-2.65-.45-5.3-1-7.93-1.52a216.73,216.73,0,0,1-32.59-9.91c-.94-.37-4.05-1.45.41.2-1.4-.52-2.75-1.2-4.1-1.82-2.45-1.12-4.88-2.29-7.27-3.51-1-.51-2-1-3-1.58-1.76-1-4-3.52-.75-.12,5,5.28,3.13,14.27-1.41,19.12l-21.89,5.78a749.15,749.15,0,0,0,118.62,9.19c37.61-.21,75.61-6.5,113.16-2.9l2.87.29c4.39.45.56,0-.26-.06a57.75,57.75,0,0,1,6.51,1.08,115.62,115.62,0,0,1,12,2.92c1.84.57,3.62,1.3,5.46,1.87,3,.94-3.63-1.79-.83-.38.72.37,1.48.69,2.21,1.06,1.7.84,3.36,1.77,5,2.77.92.57,1.79,1.23,2.71,1.78,2.47,1.47-3.78-3.51-.07,0,1.34,1.26,2.68,2.48,3.91,3.85a13.09,13.09,0,0,0,1.44,1.69c-.59-.46-2.74-4.16-.91-.92.85,1.51,1.67,3.06,2.53,4.57,1.26,2.19-1-1.93-.81-2s1.05,3.3,1.12,3.53c.19.71.33,1.43.51,2.15,1.05,4.13-.49-1.47-.17-1.64a39.11,39.11,0,0,0,0,5.07c.05,2.37.23-2.29.33-2.41a15.67,15.67,0,0,0-.7,2.8c-.49,2.56-1.55.43.68-1.3a11,11,0,0,0-1.45,2.61c-1.36,2.51-1.09-.4.87-1-.4.11-1.22,1.31-1.54,1.62-.58.58-3.06,2.8-.55.66,2.29-2,.47-.39-.16-.06a17,17,0,0,1-2.67,1.43c-.32-.21,4.46-1.38,1.85-.88-1,.18-1.92.59-2.89.82-1.91.46-4.39,0,.76.11-7.47-.19-15.15.22-22.66.21-8.78,0-18.08.72-26.29,4a59.05,59.05,0,0,0-13.52,7.2c-2.61,1.93-5.18,4-7.71,6-.84.68-1.69,1.34-2.51,2-2.3,2,4.45-2.95.09-.09-1.23.81-4.07,3.42-5.49,3.25-.24,0,4.29-1.24,1.67-.83-.3.05-3.62,1.25-3.78,1s5.93-.38,1.34-.2c-1.05,0-2.1.11-3.15.12-2.13,0-4.27-.09-6.39-.26-9-.72-17.87-2.69-26.92-2.53-6.91.12-15.34.69-21.35,4.57-8.59,5.53-12.92,13.83-13.43,24-.54,10.91.34,22.09.53,33L7043.63,348c-2.88-1.92,3.25,3.86.39.07-1.42-1.89,1.75,2.59,1.67,2.27s-.73-1-1-1.48c-1.14-2.14-1.38-5-.12.54-.31-1.37-1-2.74-1.44-4.1-1.74-5.57-2.79-11.33-4.5-16.91-4.85-15.81-14.6-29.2-29.85-36.3-13-6.05-26.8-7.87-40.3-12.22-1-.33-5.87-2.29-2.88-.91s-1.37-.67-2.12-1a84.22,84.22,0,0,1-9.05-5.26,44.69,44.69,0,0,0-4.27-3s3.43,2.83,1.6,1.2c-.56-.49-1.17-.95-1.74-1.44-2.7-2.29-5.28-4.71-7.76-7.23-2.88-2.92-5.62-6-8.26-9.1-1.16-1.39-2.31-2.79-3.43-4.2-.48-.6-.92-1.27-1.44-1.83,3.65,3.93,1,1.34.22.23-4.79-6.41-9.29-13-13.75-19.65-6.56-9.75-20.12-15-30.78-8.07-9.72,6.26-15.1,20.33-8.07,30.78Z" transform="translate(148.23 71.77)" fill="#cbe8c5"/><path d="M7325.22,288.43a79.21,79.21,0,0,0-29.06,23.78c-5.16,6.69-8.77,14.85-8.44,23.48.42,11.07,5.94,19.21,14.65,25.6,9.53,7,25.51,1.91,30.79-8.07,6.19-11.72,2.09-23.33-8.07-30.79,4.16,3.05,7.45,6.74,7.6,12a7.76,7.76,0,0,1-.77,4.34c-.75,1.67-.62,1.59.38-.22-1.63,2.17-1.75,2.06,0,0,1.08-1.22,2.2-2.39,3.38-3.52.69-.67,2-2.48,3-2.72q-3.33,2.49-1.34,1c.65-.48,1.32-.95,2-1.4a63.23,63.23,0,0,1,8.54-4.69c10.71-5,14.22-21.25,8.07-30.79-7.12-11-19.33-13.38-30.79-8.07Z" transform="translate(148.23 71.77)" fill="#cbe8c5"/><path d="M7307.43,366.12c5.32,5.55,10.72,11.05,16,16.67.46.49,4.13,4.82,2.17,2.28-2.65-3.44,3.65,4.22.67.74q-.91-2.56,0,.26c.45,2,.49,2,.15.07s-.31-1.93-.27.08a10,10,0,0,1,1.28-5.59l38.86,22.71a41.3,41.3,0,0,1,2.18-4.17c.41-.66.84-1.32,1.3-1.95,1-1.35.57-.87-1.15,1.44.62-.19,2.67-3,3.14-3.55,1.09-1.16,2.22-2.29,3.34-3.42,5-5,10.85-10.17,14.19-16.53,6.94-13.21,2.89-28.73-10.16-36.18-4.06-2.32-9.05-3.4-13.51-4.72l-4.34-1.3-2.6-.77q-8.49-2.87,8.22,7.2l3.07,11.36.1-1.29L7367,360.82c-3.63,6.23-7.52,6.15-3,3.64,1-.56,2.08-1,3.14-1.52a52,52,0,0,0,6.78-3.44c7.95-5.14,14.41-13,16.24-22.45,4.17-21.59-11.64-42.32-34.24-41.95-11.76.2-23.05,10.21-22.5,22.5.54,12,9.89,22.71,22.5,22.5,3.83-.06-3.35-.75-4.61-1.49a10.72,10.72,0,0,1-4-4.26c-1-3.09-1.33-3.82-.86-2.17s.32.89-.37-2.51a7.77,7.77,0,0,1,1.06-4.57q1.32-2.66-.07-.15a7.44,7.44,0,0,1,2.93-3.38q2.4-1.74.05-.21c-.8.46-1.61.88-2.45,1.27-1.25.61-2.55,1.14-3.81,1.74a38.39,38.39,0,0,0-10.51,7c-12.18,12.09-10.27,31.17,4.1,40.49,3.71,2.4,8.55,3.47,12.77,4.72l6.08,1.81,2.6.78q8.35,2.82-8-7l-3.07-11.35a14.15,14.15,0,0,1,4.35-10.13l-1.05,1.19c-1.09,1.16-2.17,2.33-3.29,3.47-2.24,2.28-4.55,4.49-6.77,6.79-5.27,5.48-10.38,11.56-13.61,18.49-4.95,10.65-3.35,24.75,8.08,30.78,10.38,5.49,24.93,3.06,30.78-8.07a40.26,40.26,0,0,0-3.09-42.6c-7-9.63-15.75-17.88-24-26.44s-23.72-8.83-31.82,0c-8.39,9.13-8.71,22.74,0,31.82Z" transform="translate(148.23 71.77)" fill="#cbe8c5"/><path d="M7154.37,438.74c-.56-1.58-.4-5.35.06-7.17,1.13-4.55,1.43-3.36.53-1.69a43.77,43.77,0,0,0-4,9.15,33.4,33.4,0,0,0,2.91,25.15c5.35,9.66,15.38,16.91,25,21.87,11.63,6,24.88,9.41,37.7,5.06,6.62-2.24,11.7-6.05,16.93-10.59.71-.61,1.42-1.23,2.11-1.86,2.8-2.54-.93.75-1.31,1,3-2-1.34.43-1.87.57-5.19,1.37-2.93.51-.09.63,17.59.73,27.87-13.44,32.94-28.41s3.5-33.64-12.11-41.68c-10.38-5.34-23.91-6.16-35.38-5A94.72,94.72,0,0,0,7200,409a83.15,83.15,0,0,0-8.35,3.15c-1.69.71-3.38,1.41-5.05,2.16-3.82,1.71-.46-.55.81-.32.1,0-2.47.57-2.64.73q6.06-2.16,10.78,3.52,7.18,1.14,8.77,7.38c.08-2.38-2.93-8.21-3.46-9.12a26.72,26.72,0,0,0-29.54-12.81c-13.65,3.29-24.65,12.7-32.4,24-6.65,9.74-2.15,25.38,8.08,30.78,11.41,6,23.68,2.33,30.78-8.07,2.61-3.83-3.1,2.74.14-.08.67-.71,1.38-1.4,2.12-2.05-2.47,1.79-3,2.21-1.65,1.24,1.24-.77,2.57-1.49,3.78-2.3q2.28-1.14-2,.75,3.31-1.07-1.12,0L7167.71,445a17.81,17.81,0,0,1-7.38-9.54l.31,1.1a35.13,35.13,0,0,0,3.19,8.09,27,27,0,0,0,13.45,12.11c11,4.65,21,1.48,31.28-3.14,5.2-2.35-4.47,1.34,1-.34,1.65-.51,3.27-1.07,4.94-1.5s3.35-.76,5-1.11c5-1-3.9,0,.84-.05,3.46-.05,6.84-.07,10.31.05q3.85.4-.87-.16c.85.13,1.7.29,2.54.48,5.3,1.13-2.29-1-3.35-2.38l-5.79-9.93c-.44-1.2.2-4.55-.18-1.4.65-5.47.14-1.31-.17-.05s-.72,2.2-1,3.31c-.62,2.81,1.79-3.08.3-.61-.21.34-2.11,3.15-1.95,3.46-.8-1.52,10.68-9,12.1-7.48-1.54-1.64-10,.53-11.24.83-6.71,1.66-12.15,5.76-17.31,10.15-.71.61-1.42,1.22-2.11,1.86-3.36,3.11,3-1.63.73-.46-.58.31-3.38,1.88-.5.54,1.5-.58,1.68-.69.51-.36q-2.58.61,2.25-.29c-3.28.31.62-.39,1.4.4-.39-.4-2.47-.63-3.06-.77-4-.93,2.38,1.44.06.17-1-.54-2-1-2.95-1.52-2.17-1.19-4.2-2.56-6.29-3.88-2.6-1.64.6,0,1,.9-.3-.63-1.67-1.53-2.22-2-3-2.58,1.63,2.74.42.64q-.89-1.6.31.84a6.08,6.08,0,0,1,.93,3.1c.42,2.43-.12,4.11-.55,6.41-.62,3.34.23-.06.73-1.07,3.74-7.63,6.24-16.17,3.29-24.57-3.89-11.08-15.56-19.64-27.68-15.72-10.94,3.55-19.89,15.79-15.71,27.68Z" transform="translate(148.23 71.77)" fill="#cbe8c5"/><polygon points="7778.38 998.64 7832.65 883.52 8161.56 883.52 8240.5 998.64 7778.38 998.64" fill="#d3819a"/><rect x="7778.38" y="998.64" width="462.12" height="207.21" fill="#e2a86c"/><path d="M7768.29,698.78,7750.2,846.29s110.18,77.29,172.68,0l-28-147.51Z" transform="translate(148.23 71.77)" fill="#131a5e"/><rect x="7973.64" y="701.09" width="17.54" height="92.29" fill="#131a5e"/><path d="M7750.2,396.75s84-43.37,153.88,6.21l-15.81,38-82.58,21.61-29.33-17.75Z" transform="translate(148.23 71.77)" fill="#d3819a"/><path d="M7701.36,629.31s175.25,36.38,243.26,0L7904.08,403s-81.5,52.64-153.88-6.21Z" transform="translate(148.23 71.77)" fill="#e2a86c"/><polygon points="1973.81 449.5 2020.32 406.19 2176.09 406.19 2214.87 449.5 2143.69 507.44 2058.95 498.71 2000.28 497.47 1973.81 449.5" fill="#131a5e"/><path d="M1825.57,377.73V623.65s162.06,69.49,241.06,0V377.73Z" transform="translate(148.23 71.77)" fill="#cbe8c5"/><path d="M2016,589.76s22.84,17.13,32.63-8.16c0,0-5.71-22.84-25.29-12.24C2023.31,569.36,2007.81,576.71,2016,589.76Z" transform="translate(148.23 71.77)" fill="#e2a86c"/><polygon points="2004.51 471.81 2004.51 663.48 2151.22 667.21 2155.17 471.81 2004.51 471.81" fill="#e2a86c"/><polyline points="2004.51 663.48 2036.06 638.33 2124.41 638.33 2151.22 667.21 2004.51 663.48" fill="#d3819a"/><polygon points="2038.91 471.81 2036.06 638.33 2124.41 638.33 2126.93 471.81 2038.91 471.81" fill="#ed6f2e"/><path d="M1894.69,505.21s25-24.57,70.56,0L1958.64,522l-29,8.77-20.15-5.63Z" transform="translate(148.23 71.77)" fill="#cbe8c5"/><path d="M1894.69,505.21l4.93,69.47s36.64,13.67,62.35,0l3.28-69.47S1939,524.36,1894.69,505.21Z" transform="translate(148.23 71.77)" fill="#131a5e"/><path d="M1958.64,563.46s25.08-1.93,21.73-17.84a34.34,34.34,0,0,1-.77-4.57c-.31-4.18-2.79-13.66-19.14-13.4l-1.82-5.69s32.28-2.67,27.3,24.43c0,0,3.22,22.42-27.3,23.09Z" transform="translate(148.23 71.77)" fill="#131a5e"/><path d="M1724.65,548.44s25-24.57,70.56,0l-6.61,16.75-29,8.77-20.15-5.63Z" transform="translate(148.23 71.77)" fill="#cbe8c5"/><path d="M1724.65,548.44l4.92,69.47s36.65,13.67,62.35,0l3.29-69.47S1769,567.59,1724.65,548.44Z" transform="translate(148.23 71.77)" fill="#131a5e"/><path d="M1788.6,606.69s25.08-1.93,21.73-17.84a34.34,34.34,0,0,1-.77-4.57c-.31-4.18-2.79-13.66-19.14-13.4l-1.82-5.69s32.27-2.67,27.3,24.43c0,0,3.22,22.43-27.3,23.09Z" transform="translate(148.23 71.77)" fill="#131a5e"/><path d="M1673.6,575.66s25-24.57,70.55,0l-6.61,16.75-29,8.77-20.15-5.63Z" transform="translate(148.23 71.77)" fill="#e2a86c"/><path d="M1673.6,575.66l4.92,69.47s36.65,13.67,62.35,0l3.28-69.47S1717.9,594.81,1673.6,575.66Z" transform="translate(148.23 71.77)" fill="#d3819a"/><path d="M1737.54,633.91s25.08-1.93,21.73-17.85a33.92,33.92,0,0,1-.77-4.56c-.3-4.18-2.79-13.66-19.13-13.4l-1.83-5.69s32.28-2.67,27.3,24.43c0,0,3.22,22.42-27.3,23.09Z" transform="translate(148.23 71.77)" fill="#d3819a"/><rect x="2161.83" y="471.81" width="44.94" height="12.28" fill="#e2a86c"/><rect x="2172.9" y="514.28" width="23.93" height="12.14" fill="#e2a86c"/><rect x="2172.9" y="538.42" width="23.93" height="16.65" fill="#e2a86c"/><rect x="2172.9" y="574.4" width="23.93" height="19.26" fill="#e2a86c"/><path d="M4220.86,570.71c-1.51.6-3.56-.13-3.43-2.2l.06-1.17Z" transform="translate(148.23 71.77)" fill="#cbe8c5"/><path d="M4222.47,561.36a21.07,21.07,0,0,0-.79-6.33,5,5,0,0,0-4.4-3.66c-2.12-.09-4.2,1.39-6,2.44-1.54.91-3,1.87-4.5,2.88-5.18,3.54-10,7.58-15,11.45-6.11,4.79-12.55,9.5-19.84,12.3-8.14,3.14-16.87,4-25.54,3.59-10-.45-19.83-2.43-29.6-4.47a2.58,2.58,0,0,0-3.09,1.75,2.53,2.53,0,0,0,1.75,3.07c16.71,3.49,34.36,7,51.29,2.91A62.87,62.87,0,0,0,4188.3,577c6.3-4.47,12.11-9.57,18.36-14.12,1.24-.9,2.49-1.78,3.77-2.62.5-.34,1-.67,1.54-1,.9-.57,1.81-1.13,2.73-1.66l1.41-.78a3.72,3.72,0,0,0,.71-.37l.05-.05c.06.29.23.7.29,1a30.41,30.41,0,0,1,.29,3.2q.18,3.35,0,6.69l3.37,3.37a2.43,2.43,0,0,0,1.57-2.2A63.17,63.17,0,0,0,4222.47,561.36Zm-5.61-5c-.21,0-.12-.68,0,0Z" transform="translate(148.23 71.77)" fill="#131a5e"/></svg>